<?xml version="1.0" encoding="UTF-8"?><svg id="Capa_1" xmlns="http://www.w3.org/2000/svg" xmlns:xlink="http://www.w3.org/1999/xlink" viewBox="0 0 100.87 33.48"><defs><style>.cls-1{fill:url(#Degradado_sin_nombre_3);}.cls-1,.cls-2,.cls-3,.cls-4{stroke-width:0px;}.cls-5{isolation:isolate;}.cls-2{fill:#fff;}.cls-3{fill:url(#Degradado_sin_nombre);}.cls-4{fill:url(#Degradado_sin_nombre_2);}</style><linearGradient id="Degradado_sin_nombre" x1="53.37" y1="32.52" x2="58.79" y2="32.52" gradientTransform="translate(0 35.91) scale(1 -1)" gradientUnits="userSpaceOnUse"><stop offset="0" stop-color="#efc981"/><stop offset=".19" stop-color="#e6c081"/><stop offset=".6" stop-color="#c58511"/><stop offset=".81" stop-color="#e4b76c"/><stop offset=".87" stop-color="#eec687"/><stop offset="1" stop-color="#f2e4ce"/></linearGradient><linearGradient id="Degradado_sin_nombre_2" x1="93.05" y1="12.81" x2="96.45" y2="12.81" gradientTransform="translate(0 35.91) scale(1 -1)" gradientUnits="userSpaceOnUse"><stop offset="0" stop-color="#efc981"/><stop offset=".19" stop-color="#e6c081"/><stop offset=".6" stop-color="#c58511"/><stop offset=".81" stop-color="#e4b76c"/><stop offset=".87" stop-color="#eec687"/><stop offset="1" stop-color="#f2e4ce"/></linearGradient><linearGradient id="Degradado_sin_nombre_3" x1="2.76" y1="20.65" x2="5.27" y2="20.65" gradientTransform="translate(0 35.91) scale(1 -1)" gradientUnits="userSpaceOnUse"><stop offset="0" stop-color="#efc981"/><stop offset=".19" stop-color="#e6c081"/><stop offset=".6" stop-color="#c58511"/><stop offset=".81" stop-color="#e4b76c"/><stop offset=".87" stop-color="#eec687"/><stop offset="1" stop-color="#f2e4ce"/></linearGradient></defs><polygon class="cls-3" points="53.75 5.57 54.69 6.02 55.49 6.31 56.75 5.77 58.79 4.05 58.77 1.75 56.57 .47 53.88 .95 53.37 4.5 53.75 5.57"/><path class="cls-4" d="M95.97,12.72c.33.48.49.6.48.71-.58,6.08-1.26,12.16-2.31,18.18-.11.65-.33,1.27-.49,1.86-.59.08-.63-.25-.59-.54.63-4.48,1.29-8.96,1.91-13.44.25-1.79.41-3.6.63-5.4.04-.35.18-.68.37-1.37h0Z"/><path class="cls-2" d="M0,4.33c11.05-.16,21.86-.32,32.66-.47.29,0,.58.08,1.13.17-.34.32-.5.61-.69.64-.6.08-1.21.07-1.81.08-9.46.14-18.92.28-28.38.43-.59,0-1.19.08-1.94.13.42,4.61,1.18,9.06,1.75,13.53.57,4.49,1.24,8.96,1.89,13.57.78.04,1.44.12,2.1.11,7.26-.12,14.53-.25,21.79-.38,13.77-.24,27.54-.47,41.31-.71,8.25-.14,16.49-.3,24.74-.46.59-.01,1.19-.08,1.89-.14.68-3.09.88-6.17,1.29-9.22.41-3.07.8-6.15,1.18-9.23.38-3.07.75-6.13,1.12-9.14-.84-.57-1.62-.34-2.35-.32-8.32.25-16.64.52-24.96.79-1.36.04-2.72.08-4.09.1-.44,0-.88-.07-1.64-.14.44-.34.62-.58.84-.63.44-.09.9-.08,1.36-.09,6.5-.19,13.01-.38,19.51-.58,3.25-.1,6.5-.23,9.76-.33.74-.02,1.48.03,2.37.05.01.55.07.98.02,1.4-.55,4.58-1.12,9.16-1.69,13.74-.59,4.72-1.18,9.45-1.79,14.28-.67.45-1.53.27-2.33.29-5.67.11-11.35.17-17.03.28-14.53.27-29.05.55-43.58.82-9.16.17-18.31.32-27.47.48-.61,0-1.21.03-1.82,0-.99-.05-1.34-.33-1.49-1.35-.35-2.32-.65-4.64-.96-6.97C1.85,18.7.98,12.33.12,5.96c-.06-.44-.07-.9-.12-1.63Z"/><path class="cls-1" d="M2.78,7.41c.29.22.48.29.5.39.68,4.99,1.34,9.98,2,14.97.01.1-.15.22-.24.33-.07-.01-.2,0-.21-.04-.16-.4-.37-.79-.44-1.21-.92-5.09-1.76-12.65-1.6-14.44h0Z"/><g class="cls-5"><g class="cls-5"><path class="cls-2" d="M24.25,27.91c-.82-.03-1.43-.25-1.82-.65-.39-.4-.58-.94-.58-1.62,0-.57.13-1.24.39-2.01.1-.29.25-.66.47-1.13.21-.47.46-.99.73-1.57.27-.58.56-1.18.85-1.79.3-.61.57-1.21.83-1.79.26-.58.48-1.1.66-1.57.18-.47.29-.84.34-1.13.01-.05.02-.1.02-.14v-.12c0-.25-.07-.44-.21-.55-.14-.11-.32-.17-.54-.17-.35,0-.78.12-1.28.36-.6.29-1.22.68-1.85,1.19-.63.51-1.25,1.13-1.85,1.85-.57.69-1.1,1.44-1.6,2.25-.5.81-.96,1.62-1.38,2.44s-.81,1.61-1.16,2.36c-.35.75-.66,1.41-.94,1.97-.08.15-.21.27-.39.35-.18.08-.35.12-.52.12-.14,0-.26-.03-.36-.09s-.13-.15-.1-.27c.16-.24.39-.62.67-1.14.29-.52.59-1.13.93-1.83.33-.7.67-1.45,1.01-2.25s.65-1.59.93-2.38c.28-.79.5-1.54.65-2.25.11-.48.16-.93.16-1.35,0-.77-.18-1.31-.53-1.64s-.81-.49-1.37-.49c-.5,0-1.06.11-1.66.33-.6.22-1.2.52-1.79.89-.95.58-1.74,1.26-2.37,2.03s-1.09,1.56-1.4,2.35c-.31.79-.46,1.53-.46,2.21,0,.71.17,1.31.52,1.78.35.47.86.71,1.54.71.58,0,1.12-.12,1.6-.36s.91-.55,1.27-.94.63-.78.83-1.2c.2-.42.3-.8.3-1.15,0-.32-.09-.58-.26-.78-.18-.2-.46-.3-.86-.3-.04,0-.09,0-.13,0-.04,0-.09,0-.15,0h-.05c-.1,0-.15-.03-.15-.08,0-.1.05-.16.16-.18.29-.07.53-.1.74-.1.45,0,.78.12,1,.36.21.24.32.55.32.92,0,.39-.11.83-.34,1.31-.23.48-.54.93-.95,1.35-.41.42-.9.77-1.47,1.04s-1.2.41-1.89.41c-.53,0-1.02-.13-1.48-.39s-.83-.63-1.11-1.11-.42-1.06-.42-1.74c0-.34.04-.7.12-1.08.08-.38.2-.77.38-1.18.26-.64.63-1.24,1.1-1.81.47-.57,1.01-1.09,1.6-1.57.6-.48,1.21-.89,1.83-1.23.55-.31,1.14-.55,1.78-.73.64-.18,1.24-.27,1.83-.27.53,0,1.01.09,1.45.26.44.18.79.46,1.04.85.26.39.39.91.39,1.55,0,.11,0,.21,0,.31,0,.1-.02.22-.04.36-.07.64-.24,1.28-.52,1.93-.28.65-.56,1.29-.85,1.9-.15.34-.26.59-.33.74-.07.15-.1.24-.1.26s.03-.02.09-.12c.06-.1.13-.22.21-.36.08-.14.16-.26.22-.36.25-.39.56-.84.92-1.35.36-.5.78-1.04,1.25-1.61.61-.75,1.26-1.43,1.95-2.06.69-.62,1.35-1.09,1.98-1.38.29-.13.58-.24.89-.31.31-.08.6-.12.87-.12.44,0,.82.11,1.15.34.33.23.49.63.48,1.23,0,.49-.12,1.04-.35,1.65-.24.6-.54,1.26-.92,1.96-.38.7-.79,1.45-1.23,2.25-.44.8-.86,1.64-1.27,2.53-.3.64-.51,1.23-.65,1.77-.14.54-.21,1.02-.21,1.42,0,.45.09.8.26,1.06.18.26.43.39.76.39.24,0,.51-.07.81-.21.1-.05.19-.09.27-.11s.15-.03.19-.03c.16,0,.25.06.25.18s-.1.25-.3.39c-.2.14-.46.21-.79.2Z"/><path class="cls-2" d="M26.4,25.49c-.12,0-.27-.03-.44-.08-.17-.05-.32-.16-.44-.3-.13-.15-.19-.37-.19-.67s.07-.56.21-.83c.14-.27.27-.53.39-.78-.03,0-.07-.01-.11-.03-.04-.02-.06-.05-.06-.1s.01-.09.03-.13c.04-.09.09-.18.15-.28s.1-.2.15-.31c.16-.34.33-.67.49-.98s.31-.59.43-.83.33-.36.62-.36h1.02c-.19.14-.35.3-.5.47-.15.17-.33.48-.55.93-.15.31-.29.58-.4.81-.12.24-.23.47-.35.72s-.21.44-.29.61c-.14.31-.24.55-.28.73-.04.18-.07.35-.07.5,0,.36.12.54.36.54.26,0,.58-.21.95-.64.31-.36.61-.79.9-1.3.3-.5.58-1.03.85-1.56s.51-1.02.72-1.45c.12-.24.33-.36.64-.36h.9c-.16.13-.3.25-.41.37-.11.12-.22.27-.32.46-.1.19-.24.46-.42.81-.14.3-.29.61-.45.95-.16.33-.3.65-.42.95-.12.3-.2.54-.23.72-.01.11-.02.19-.03.25-.01.05-.02.12-.02.18,0,.21.04.36.11.44.07.09.16.13.25.13.26,0,.53-.15.8-.44.27-.3.53-.66.77-1.09.25-.43.46-.83.63-1.22.07-.12.13-.18.18-.18.07,0,.1.04.1.12,0,.05-.02.12-.07.2-.12.26-.27.56-.44.9-.18.34-.37.67-.59,1s-.46.6-.72.81-.55.32-.86.32c-.27,0-.5-.1-.67-.3-.18-.2-.26-.49-.26-.86,0-.3.05-.61.16-.95-.19.33-.4.66-.64.99-.24.33-.5.6-.77.81-.27.21-.55.32-.82.32Z"/><path class="cls-2" d="M32.95,25.56c-.41,0-.77-.13-1.09-.39-.32-.26-.49-.66-.49-1.2,0-.49.12-1.02.36-1.59.24-.56.55-1.06.92-1.49.32-.37.67-.68,1.07-.92s.77-.36,1.12-.36c.24,0,.45.07.62.2.19.14.28.34.28.61s-.1.58-.31.9c-.21.33-.5.64-.89.92-.16.12-.37.24-.62.34-.25.11-.5.2-.76.27-.25.07-.46.11-.63.11-.05.13-.11.31-.16.53s-.07.44-.07.67c0,.27.05.52.16.74s.31.33.61.33c.36,0,.69-.1.99-.31.3-.21.56-.47.79-.78.23-.31.42-.63.58-.95.16-.32.29-.59.39-.81.07-.15.15-.23.26-.23.05,0,.08.03.08.08,0,.04-.02.1-.05.16-.15.33-.32.68-.49,1.04-.18.37-.38.71-.62,1.04-.24.32-.53.58-.86.78s-.73.3-1.19.3ZM32.65,22.66c.15,0,.41-.06.77-.17.36-.12.69-.3.99-.55.29-.25.5-.53.66-.83.15-.3.23-.56.23-.76,0-.24-.09-.36-.26-.36-.13,0-.31.09-.54.26-.23.17-.52.47-.85.89-.21.26-.41.55-.59.86-.19.31-.32.53-.4.67Z"/><path class="cls-2" d="M36.24,25.56c-.54,0-.92-.14-1.14-.42-.22-.28-.34-.57-.34-.88,0-.25.06-.48.19-.69.13-.21.28-.32.45-.33.22-.43.46-.89.72-1.4.26-.5.5-.99.72-1.46.15-.32.35-.62.58-.92s.5-.47.78-.51h.16c.09,0,.17,0,.24.02s.15.03.22.07c.12.05.18.14.18.25,0,.07-.04.1-.11.1-.03,0-.08-.02-.13-.05-.13-.05-.25-.08-.35-.08-.07,0-.13.02-.18.05-.21.11-.35.26-.44.46-.08.2-.12.41-.12.62,0,.18.02.35.06.54.04.18.08.34.14.49.12.31.25.61.39.9s.21.61.21.95-.11.68-.33,1.04c-.22.37-.5.66-.84.88l.11.02c.06.01.09.02.12.02h.05c.25,0,.49-.07.72-.22.22-.15.42-.33.6-.55.18-.22.38-.53.6-.92.22-.4.44-.81.65-1.25.03-.05.07-.08.12-.08.05,0,.1.02.12.06.03.04.03.08,0,.14-.14.31-.3.64-.49,1-.18.36-.39.7-.62,1.02s-.5.59-.8.79c-.3.2-.64.3-1.01.3-.09,0-.18,0-.28-.02-.1-.01-.2-.03-.3-.07-.11.04-.22.08-.34.11-.11.03-.22.04-.32.04ZM36.11,25.29c.07,0,.13,0,.18-.02.05-.02.1-.03.15-.04-.16-.12-.31-.28-.44-.48-.13-.2-.2-.46-.22-.78-.2.21-.3.43-.3.67,0,.18.05.33.16.46.11.13.26.2.46.2ZM36.73,25.06c.19-.15.35-.38.5-.67s.22-.68.22-1.17c0-.43-.04-.88-.13-1.37-.09-.48-.13-.91-.13-1.28,0-.08,0-.14,0-.21s.01-.12.02-.17c-.14.3-.31.64-.49,1.03s-.37.76-.56,1.13c-.19.36-.35.67-.48.92.12.01.21.05.26.12.05.07.08.21.07.42-.01.27.05.53.19.76.14.24.31.4.52.49Z"/><path class="cls-2" d="M40.89,25.49c-.31,0-.58-.11-.82-.32s-.36-.55-.36-1.01c0-.36.07-.81.21-1.34.14-.53.31-1.09.51-1.66.2-.58.4-1.1.6-1.57h-.87c-.08,0-.11-.05-.11-.17,0-.05.01-.1.04-.15.03-.04.07-.07.12-.07h.99c.19-.42.38-.82.59-1.22.21-.4.41-.77.61-1.12.25-.44.52-.77.81-.99.29-.22.53-.33.74-.33.16,0,.3.06.41.19.11.13.16.32.16.57,0,.15-.03.36-.1.63s-.17.55-.31.85c-.08.15-.18.37-.32.66-.14.29-.27.54-.4.76h.79c.08,0,.11.06.11.17,0,.04-.01.09-.03.14-.02.05-.06.07-.1.07h-.97c-.27.47-.59.93-.94,1.38-.35.45-.77.9-1.25,1.35-.03.1-.07.24-.12.43s-.09.38-.13.57c-.04.19-.08.42-.14.68-.03.14-.05.27-.05.39,0,.23.05.4.16.5.11.1.24.16.38.16.09,0,.18-.01.26-.04.09-.03.19-.08.3-.16.38-.27.72-.65,1.01-1.12s.55-.93.77-1.37c.07-.13.13-.2.2-.2.04,0,.07.03.07.1,0,.03-.02.09-.05.18-.24.5-.44.91-.61,1.22-.16.31-.32.56-.48.77-.15.2-.33.4-.54.6-.15.15-.33.27-.53.35-.2.08-.39.12-.59.12ZM41.12,21.79c.32-.33.62-.68.9-1.05s.54-.76.78-1.15h-.77c-.18.41-.34.8-.49,1.18-.15.38-.29.72-.41,1.02ZM42.19,19.21h.84c.15-.29.3-.56.44-.84s.26-.55.37-.82c.08-.18.14-.37.2-.59.05-.22.08-.39.08-.51,0-.16-.04-.25-.12-.25-.06,0-.13.05-.24.14s-.23.25-.39.47c-.2.27-.39.63-.58,1.06-.19.43-.39.88-.6,1.34Z"/><path class="cls-2" d="M45.35,25.51c-.21,0-.42-.08-.63-.25-.21-.17-.31-.45-.31-.83,0-.3.07-.64.21-1.02.13-.37.31-.74.53-1.09s.39-.64.49-.86c.03-.09.05-.16.05-.23,0-.2-.12-.34-.37-.43s-.57-.14-.96-.15l-.2.54c-.12.35-.29.76-.5,1.23-.21.47-.45.93-.71,1.37-.26.44-.52.79-.8,1.05-.02.02-.05.03-.08.03-.04,0-.07-.03-.09-.08-.02-.06,0-.12.07-.2.43-.57.81-1.2,1.15-1.9s.63-1.41.86-2.13c.24-.72.41-1.39.52-2.01.03-.17.09-.3.18-.39.09-.08.18-.12.28-.12.14,0,.27.07.4.21.12.14.18.33.18.58,0,.04,0,.09,0,.15,0,.06-.01.11-.02.17-.04.23-.17.45-.39.65s-.39.35-.52.45c.11.01.22.02.35.03.12,0,.25,0,.39,0,.52,0,1.03-.03,1.53-.1.02.07.03.12.03.15,0,.14-.04.32-.12.54-.08.22-.17.42-.25.59-.04.1-.13.28-.26.53-.13.26-.27.55-.43.87-.15.32-.28.64-.39.95-.1.31-.16.58-.16.8,0,.29.11.43.33.43.16,0,.35-.11.54-.32.2-.21.39-.48.58-.79.19-.31.37-.62.53-.92.16-.3.28-.54.37-.72.04-.11.1-.16.18-.16.04,0,.07.04.07.11,0,.04-.02.11-.05.2-.12.25-.26.54-.43.85-.16.32-.35.63-.55.94-.2.31-.42.57-.66.8s-.49.37-.77.44c-.03.01-.09.02-.18.02Z"/><path class="cls-2" d="M51.24,25.54c-.12.01-.26-.02-.41-.08-.15-.07-.29-.19-.4-.36-.12-.18-.17-.42-.17-.74,0-.26.05-.58.15-.95-.13.21-.3.46-.51.76-.21.3-.43.57-.67.8-.21.2-.41.34-.59.43s-.36.13-.51.13c-.29,0-.52-.13-.69-.39-.18-.26-.26-.59-.26-1.01,0-.44.11-.94.33-1.5s.58-1.14,1.07-1.74c.32-.38.7-.69,1.16-.93.46-.24.9-.35,1.34-.35.25,0,.49.04.72.12.23.08.43.22.61.4.08.08.12.16.12.26,0,.07-.03.12-.08.17s-.13.05-.21.03c-.12-.38-.38-.58-.77-.58-.19,0-.4.06-.64.18-.37.2-.76.52-1.16.97-.4.45-.75.92-1.04,1.4-.04.07-.11.19-.21.38s-.18.39-.27.62c-.09.23-.15.46-.18.67-.01.07-.02.11-.02.14v.12c0,.36.14.54.41.54.33,0,.7-.24,1.12-.72.29-.35.54-.72.77-1.1.23-.38.47-.79.71-1.23.17-.3.32-.54.46-.74s.35-.3.61-.3c.12,0,.24.02.36.05.12.03.25.04.38.02-.09.09-.21.25-.35.49-.15.24-.3.52-.47.82-.16.31-.31.62-.44.94-.13.32-.22.59-.28.82-.01.07-.02.16-.04.28-.02.12-.02.21-.02.26,0,.31.09.46.26.46s.36-.1.57-.31c.2-.21.4-.47.6-.77s.38-.62.54-.93.3-.57.39-.76c.04-.11.11-.16.2-.16.05,0,.08.04.08.11,0,.03-.02.09-.05.18-.13.27-.29.58-.48.93-.19.35-.39.68-.61,1-.22.32-.45.59-.68.81-.24.21-.47.33-.71.35Z"/><path class="cls-2" d="M59.76,26.13c-.24,0-.49-.02-.74-.05-.69-.09-1.2-.29-1.52-.61-.32-.32-.49-.66-.49-1.04,0-.41.18-.78.54-1.11s.87-.5,1.53-.5c.44,0,.92.09,1.43.26.29.1.62.26,1.02.49.4.23.85.47,1.37.72.55-.53,1.05-1.18,1.51-1.96.46-.78.91-1.62,1.37-2.51s.95-1.79,1.48-2.69c.53-.9,1.15-1.74,1.85-2.53l.95-1.07c-.41-.07-.83-.12-1.27-.16-.44-.04-.89-.06-1.37-.06-.59,0-1.2.03-1.83.09-.62.06-1.25.16-1.88.29-1.03.22-1.9.57-2.62,1.05s-1.25,1.01-1.62,1.57-.55,1.09-.55,1.59c0,.34.1.64.29.91.19.27.48.46.86.58.24.08.49.12.74.12.37,0,.7-.08.99-.23.29-.15.53-.34.72-.57.2-.22.34-.44.44-.65.09-.21.13-.36.12-.46,0-.08.05-.12.16-.12s.17.08.17.25v.02c0,.45-.14.84-.41,1.17-.27.33-.62.58-1.03.76-.41.17-.83.26-1.24.26-.26,0-.54-.04-.82-.13-.59-.21-1.03-.51-1.32-.91-.29-.4-.43-.84-.43-1.32,0-.45.12-.91.37-1.39.25-.48.61-.93,1.09-1.37s1.08-.81,1.8-1.13c.72-.32,1.55-.54,2.49-.67.5-.08,1-.13,1.5-.16.49-.03.97-.05,1.43-.05.64,0,1.26.03,1.87.09.61.06,1.18.15,1.72.27.15-.13.31-.25.47-.35s.3-.17.44-.23c.08-.03.14-.06.2-.07s.1-.02.13-.02c.07,0,.1.02.1.07,0,.05-.08.14-.25.26-.11.08-.21.16-.31.25-.1.09-.16.16-.18.21,1.12.29,2.03.68,2.72,1.18s1.04,1.09,1.04,1.77c0,.35-.12.74-.35,1.15-.24.41-.58.73-1,.98-.43.25-.88.43-1.37.54-.48.12-.93.18-1.35.21.36.11.76.27,1.19.49.43.21.83.47,1.2.78s.61.67.73,1.09c.08.26.12.53.12.81,0,.58-.17,1.11-.5,1.58-.33.47-.78.88-1.33,1.21-.55.33-1.16.59-1.82.77-.66.18-1.31.27-1.96.27-.24,0-.49-.02-.74-.05-1.05-.13-1.92-.3-2.61-.49s-1.29-.42-1.8-.66c-1.06.8-2.22,1.2-3.47,1.2ZM59.43,25.62c.61.03,1.18-.04,1.69-.22.51-.18.98-.44,1.42-.76-.38-.19-.78-.38-1.18-.58s-.83-.39-1.27-.55c-.32-.11-.61-.17-.87-.17-.41,0-.71.11-.92.32-.21.21-.31.46-.31.73s.12.56.36.81.6.4,1.09.42ZM68.15,25.65c.68,0,1.3-.1,1.86-.31.56-.21,1.04-.48,1.46-.82s.73-.72.95-1.13.34-.83.34-1.23c0-.38-.12-.76-.35-1.12s-.59-.66-1.09-.9c-.43-.21-.87-.38-1.32-.52-.46-.14-.85-.26-1.18-.36-.33-.1-.52-.21-.58-.32,0-.13.06-.22.17-.27s.27-.07.45-.07c.22,0,.48.02.79.05.31.03.63.05.97.05s.71-.08,1.08-.24c.37-.16.7-.37,1.01-.64.31-.27.56-.56.75-.89.19-.32.29-.65.29-1,0-.31-.1-.61-.31-.9s-.55-.55-1.04-.77c-.48-.22-1-.39-1.56-.53-.55.76-1.1,1.6-1.65,2.54-.55.94-1.1,1.89-1.64,2.85-.55.96-1.1,1.87-1.66,2.72-.56.86-1.12,1.59-1.68,2.2-.13.14-.24.25-.31.32-.08.07-.18.17-.31.29.52.21,1.1.41,1.76.59.66.19,1.41.32,2.25.4.09.01.18.02.27.02.09,0,.18,0,.27,0Z"/><path class="cls-2" d="M75.77,25.49c-.42,0-.72-.14-.92-.42-.2-.28-.3-.62-.3-1.03,0-.49.12-1.01.35-1.55.22-.5.5-.96.84-1.38.34-.42.71-.75,1.1-1.01.39-.26.78-.39,1.15-.39.42,0,.72.14.92.41.2.27.3.62.3,1.04,0,.5-.12,1.02-.35,1.55-.13.3-.32.62-.56.98-.24.36-.52.68-.82.98.07.12.16.22.28.3.12.08.29.12.49.12.26,0,.51-.11.75-.33.24-.22.45-.49.65-.8s.37-.63.53-.95c.15-.32.28-.58.38-.77.03-.07.09-.1.17-.1.04,0,.08.02.1.06.02.04.02.1-.02.17-.07.17-.18.41-.33.73s-.34.66-.56,1c-.22.35-.47.64-.76.88-.29.24-.6.36-.95.36-.24,0-.45-.04-.62-.12-.18-.08-.32-.18-.43-.3-.23.18-.46.31-.69.41s-.46.15-.69.15ZM76.01,25.13c.3,0,.61-.14.95-.43-.09-.13-.15-.27-.2-.41-.04-.14-.07-.27-.07-.39,0-.2.05-.37.14-.51.09-.14.24-.21.44-.21.14,0,.26.05.35.16.09.1.14.22.14.35,0,.03,0,.06,0,.09s-.01.06-.02.09c.19-.25.36-.55.53-.89.36-.78.54-1.42.54-1.92,0-.25-.05-.45-.15-.59-.1-.14-.25-.21-.44-.21-.23,0-.48.1-.75.3s-.53.46-.77.79c-.25.33-.46.7-.65,1.1-.18.37-.32.73-.42,1.08-.1.35-.16.64-.16.9,0,.22.04.4.13.53.09.13.22.2.41.2Z"/><path class="cls-2" d="M84.12,25.49c-.3,0-.54-.15-.74-.44-.06-.09-.1-.2-.15-.35-.04-.14-.07-.3-.07-.48,0-.1,0-.2.02-.3.01-.1.03-.21.07-.32-.15.24-.33.51-.53.8-.2.29-.43.54-.69.76s-.55.32-.86.32c-.11,0-.23-.02-.35-.05-.3-.09-.51-.24-.63-.46s-.19-.48-.19-.79c0-.34.07-.71.21-1.12.14-.41.31-.8.53-1.18s.44-.71.67-.99c.33-.38.71-.69,1.13-.92s.86-.35,1.3-.35c.39,0,.77.1,1.12.31.16-.31.34-.65.53-1.03.19-.38.37-.75.56-1.13s.35-.72.49-1.03.25-.55.33-.72c.16-.38.32-.63.47-.73s.33-.16.54-.16c.12,0,.25.01.4.04.15.03.29.04.44.02-.07.07-.2.25-.4.57s-.44.71-.72,1.19c-.27.48-.57,1.01-.88,1.59-.31.57-.62,1.16-.92,1.74-.3.59-.58,1.14-.84,1.66-.26.52-.46.97-.62,1.34-.04.09-.11.27-.19.53s-.12.5-.12.7c0,.14.03.27.1.37s.17.16.33.16c.21,0,.42-.11.63-.32s.42-.48.62-.79.37-.62.53-.92.27-.54.35-.72c.05-.12.12-.18.2-.18.07,0,.1.05.1.15v.06s-.01.06-.03.09c-.1.23-.23.52-.4.86-.17.34-.37.68-.6,1.02s-.49.62-.77.85-.59.34-.92.34ZM81.28,25c.15,0,.34-.08.58-.25s.48-.44.74-.81c.31-.44.66-.99,1.05-1.65.4-.66.78-1.35,1.17-2.09-.14-.13-.31-.2-.49-.2-.31,0-.65.14-1.03.43-.38.29-.75.65-1.1,1.09s-.66.88-.9,1.33c-.16.31-.28.59-.35.84-.07.25-.11.47-.11.66,0,.44.15.66.44.66Z"/><path class="cls-2" d="M90.11,25.54c-.12.01-.26-.02-.41-.08-.15-.07-.29-.19-.4-.36-.12-.18-.17-.42-.17-.74,0-.26.05-.58.15-.95-.13.21-.3.46-.51.76-.21.3-.43.57-.67.8-.21.2-.41.34-.59.43s-.36.13-.51.13c-.29,0-.52-.13-.69-.39s-.26-.59-.26-1.01c0-.44.11-.94.33-1.5.22-.56.58-1.14,1.07-1.74.32-.38.71-.69,1.16-.93.46-.24.9-.35,1.34-.35.25,0,.49.04.72.12s.43.22.61.4c.08.08.12.16.12.26,0,.07-.03.12-.08.17s-.13.05-.21.03c-.12-.38-.38-.58-.77-.58-.19,0-.4.06-.64.18-.37.2-.76.52-1.16.97-.4.45-.75.92-1.04,1.4-.04.07-.11.19-.21.38-.09.19-.18.39-.27.62-.09.23-.15.46-.18.67-.01.07-.02.11-.02.14v.12c0,.36.14.54.41.54.33,0,.7-.24,1.12-.72.29-.35.54-.72.77-1.1.23-.38.47-.79.71-1.23.16-.3.32-.54.46-.74.14-.2.34-.3.61-.3.12,0,.24.02.36.05.12.03.25.04.38.02-.09.09-.21.25-.35.49-.15.24-.3.52-.47.82-.17.31-.31.62-.44.94s-.22.59-.28.82c-.01.07-.03.16-.04.28-.02.12-.02.21-.02.26,0,.31.09.46.26.46s.36-.1.57-.31c.2-.21.4-.47.6-.77.2-.31.38-.62.54-.93.17-.31.3-.57.4-.76.04-.11.11-.16.2-.16.05,0,.08.04.08.11,0,.03-.02.09-.05.18-.13.27-.29.58-.48.93-.19.35-.39.68-.61,1-.22.32-.45.59-.68.81-.24.21-.47.33-.72.35Z"/></g></g><path class="cls-2" d="M51.74,15.43c-1.03,0-2.01-.29-2.91-.85-.49-.31-.88-.6-1.18-.9-.16-.16-.3-.33-.42-.5v-.06c-.38.2-.74.34-1.06.42-.28.07-.53.12-.77.16-.39.07-.75.1-1.1.1-.85,0-1.61-.18-2.41-.58s-1.52-.91-2.13-1.52c-.41-.41-.76-.85-1.04-1.32-1.42-2.34-.8-5.73.63-7.65.87-1.15,2.35-1.92,4.05-2.12.3-.04.6-.05.9-.05,1.53,0,2.98.47,4,1.29.76.62,1.41,1.38,1.87,2.23.48-.14.99-.21,1.53-.21s1.06.07,1.6.2l.38-3.01c0-.08.06-.16.13-.2.45-.26,1.79-.55,2.34-.66l.19-.04c.29.02,2.36,1.16,2.52,1.54,0,0,.02.09.02.1l.04,2.18s-.04.14-.05.17c-.23.32-1.48,1.34-2.27,1.89,1.59,2.03,1.4,5.62-.43,7.47-1.22,1.24-2.85,1.95-4.45,1.95h0l.02-.03ZM47.68,12.86c.3.43.75.82,1.44,1.25.82.51,1.7.77,2.62.77,1.44,0,2.96-.67,4.06-1.79,1.64-1.66,1.8-4.99.35-6.79-.03.02-.06.03-.08.04-.15.06-.33.09-.54.09-.07,0-.15,0-.22-.01h-.08c-.08,0-.13-.03-.17-.07-.14,0-.29-.05-.46-.11.15.11.3.22.43.34.7.64,1.11,1.65,1.13,2.78.03,1.21-.39,2.38-1.12,3.11-.9.92-2.1,1.44-3.29,1.44-.76,0-1.49-.21-2.16-.63-.36-.23-.65-.44-.87-.67-.1-.1-.19-.2-.26-.3-.26.19-.53.37-.79.53v.02ZM48.9,11.99c.24.31.55.57.99.85.58.36,1.21.55,1.87.55,1.03,0,2.12-.48,2.91-1.28.63-.64.99-1.65.96-2.72-.02-.98-.37-1.85-.96-2.39-.74-.67-1.89-1.1-2.94-1.1-.3,0-.58.03-.85.1.27,1.35.08,2.74-.55,4.01-.45.9-.89,1.52-1.4,1.95l-.04.03h0ZM44.3,1.09c-.28,0-.56.02-.84.05-1.55.19-2.89.88-3.67,1.91-1.32,1.78-1.91,4.9-.6,7.04.65,1.08,1.69,2.01,2.94,2.64.72.36,1.41.52,2.17.52.32,0,.65-.03,1.01-.09.23-.04.46-.09.72-.15.88-.22,1.89-.9,2.56-1.46.45-.39.86-.95,1.27-1.78.57-1.14.74-2.37.52-3.59,0,0-.02.01-.04.02-.36.17-.71.42-1.03.72.05.81-.11,1.6-.49,2.36-.23.47-.48.85-.73,1.14.02.06-.08.15-.2.17,0,.05-.06.09-.11.13-.52.44-1.33.98-2.05,1.16-.2.05-.39.09-.56.12-.29.05-.56.07-.82.07-.63,0-1.19-.14-1.78-.43s-1.12-.67-1.57-1.12c-.3-.3-.56-.63-.77-.98-1.05-1.73-.59-4.23.46-5.65.65-.85,1.74-1.42,3-1.57.22-.03.45-.04.67-.04,1.13,0,2.2.35,2.95.96.54.44,1,.98,1.35,1.59.29-.2.57-.37.85-.5.05-.02.1-.05.15-.07-.43-.75-1.01-1.44-1.7-1.99-.92-.74-2.25-1.17-3.65-1.17h0ZM44.35,2.82c-.2,0-.4,0-.6.04-1.11.13-2.07.63-2.62,1.36-.95,1.27-1.37,3.51-.43,5.04.47.77,1.21,1.44,2.11,1.89.51.25,1,.37,1.54.37.23,0,.47-.02.72-.06.16-.03.33-.06.52-.11.18-.05.39-.13.61-.24-.05-.18-.1-.35-.12-.52-.04-.24-.06-.47-.08-.69-.08-1.17.14-2.12.73-3.05.4-.64.91-1.23,1.48-1.71-.31-.57-.74-1.08-1.25-1.5-.65-.53-1.61-.83-2.61-.83h0ZM51.69,4.39c-.72,0-1.4.14-1.96.41-.99.47-1.9,1.31-2.54,2.34-.52.83-.72,1.67-.65,2.72,0,.2.04.41.07.64.02.1.04.21.07.32.25-.16.51-.35.73-.54.06-.05.11-.1.16-.16-.04-.04-.06-.17-.07-.3-.06-.87.11-1.57.54-2.26.52-.83,1.24-1.49,2.05-1.88.13-.06.26-.11.39-.16.39-.13.8-.19,1.24-.19.71,0,1.46.17,2.12.48-.07-.05-.13-.11-.19-.17-.25-.25-.41-.54-.45-.82l.02-.24c-.52-.13-1.04-.2-1.54-.2h.01ZM48.74,7.53c-.08.11-.16.22-.23.33-.32.52-.47,1.04-.47,1.66.09-.15.19-.32.28-.5.24-.48.38-.97.42-1.49ZM54.48,3.32c-.15.68-.31,1.45-.27,2.1.04.02.13.09.24.15.22.13.47.23.71.28.33-.41.64-.83.96-1.25.08-.1.16-.2.25-.3.08-.09.17-.19.24-.28-.29-.04-.53-.1-.76-.16-.3-.09-.53-.27-.75-.44l-.51-.41s-.03-.02-.05-.03l-.07.35h0ZM57.24,4.09c-.12.21-.3.41-.48.6-.11.12-.21.23-.29.34-.2.27-.41.54-.61.81h0c.29-.12,1.53-1.06,2.2-1.66-.16-.02-.83-.09-.83-.09ZM57.69,3.6c.24.02.48.04.71.07l-.03-1.64c-.44-.04-.8-.09-1.09-.17,0,.44.03.88.05,1.32,0,.05,0,.11.02.17,0,.07.02.15.03.22,0,0,.31.03.31.03ZM55.24,2.82c.23.2.47.4.73.49.24.09.52.15.85.2,0-.1-.02-.21-.03-.32,0-.09-.02-.18-.02-.24-.02-.36-.04-.72-.04-1.08-.36.15-.73.28-1.09.42l-.45.16c-.1.03-.19.06-.27.1,0,0,.32.27.32.27ZM54.01,2.9c.02-.08.04-.17.06-.25l.04-.11s-.03-.04-.04-.07l-.05.43h-.01ZM54.37,1.29c.08.23.18.53.24.8.02,0,.04-.02.07-.03.27-.11.54-.2.81-.3.38-.13.76-.27,1.13-.43-.13-.16-.3-.36-.5-.6-.43.09-1.3.28-1.78.46l.03.09h0ZM57.3,1.3c.09.03.23.06.37.09-.19-.12-.39-.24-.58-.35.1.13.18.22.21.26Z"/><path class="cls-2" d="M56.4.26h.02c.14.02,2.2,1.14,2.34,1.47h0v.04h0l.04,2.18s0,.06-.03.09c-.24.33-1.59,1.42-2.35,1.93,1.62,1.94,1.48,5.57-.33,7.4-1.09,1.11-2.67,1.92-4.36,1.92-.94,0-1.91-.25-2.85-.84-.48-.3-.86-.59-1.15-.89-.16-.16-.29-.32-.41-.48-.03-.04-.06-.09-.09-.13-.37.2-.75.36-1.11.45-.27.07-.52.12-.76.16-.38.06-.74.1-1.08.1-.83,0-1.58-.18-2.35-.57-.79-.39-1.5-.9-2.09-1.5-.4-.4-.74-.84-1.02-1.3-1.4-2.29-.78-5.62.63-7.52.85-1.12,2.3-1.87,3.96-2.07.3-.04.59-.05.89-.05,1.49,0,2.91.45,3.92,1.26.78.63,1.43,1.42,1.89,2.28.49-.16,1.03-.24,1.59-.24s1.13.08,1.7.23l.4-3.15s.03-.09.07-.11c.43-.25,1.75-.54,2.3-.65h0l.19-.04h.03M54.49,2.25c.06-.03.13-.06.21-.09.7-.28,1.42-.48,2.1-.8-.15-.18-.37-.45-.65-.78-.45.09-1.5.32-1.98.53.07.22.27.76.33,1.14M58.2,1.58c-.43-.29-1.25-.78-1.64-.97.32.38.55.67.62.76.25.11.64.17,1.01.21M44.28,13.35c.33,0,.67-.03,1.03-.09.23-.04.47-.09.73-.16.9-.23,1.93-.92,2.61-1.49.47-.4.88-.98,1.3-1.82.61-1.22.77-2.53.5-3.82-.06.02-.12.05-.18.08-.4.19-.77.46-1.11.78.06.8-.1,1.59-.47,2.35-.23.47-.47.83-.72,1.11,0,.06-.05.12-.12.13h0c-.06.06-.11.11-.17.16-.51.43-1.31.96-2,1.14-.2.05-.38.09-.55.12-.28.05-.54.07-.79.07-.61,0-1.16-.14-1.73-.42-.58-.29-1.1-.66-1.53-1.1-.29-.29-.55-.61-.75-.95-1.03-1.68-.57-4.13.46-5.51.63-.82,1.69-1.38,2.91-1.52.22-.03.44-.04.65-.04,1.1,0,2.14.33,2.88.93.57.46,1.04,1.04,1.38,1.67.3-.22.62-.42.95-.57.09-.04.18-.08.28-.12-.44-.81-1.06-1.55-1.8-2.15-.95-.77-2.3-1.2-3.73-1.2-.28,0-.57.02-.86.05-1.58.19-2.96.9-3.76,1.96-1.35,1.81-1.94,5-.61,7.19.66,1.1,1.73,2.05,2.99,2.68.73.36,1.44.54,2.22.54M56.94,3.66c0-.18-.05-.54-.06-.71-.02-.42-.04-.84-.04-1.26-.48.22-.98.39-1.47.57-.28.1-.51.15-.68.27.09.08.18.16.25.21.3.24.61.56.98.69.32.11.67.18,1.02.22M58.51,3.81l-.04-1.89c-.52-.04-1-.1-1.34-.23,0,.5.02,1,.05,1.5,0,.14.06.33.05.5.43.04.86.07,1.27.12M53.78,5.14c.02-.25.08-.52.12-.76.07-.56.12-1.15.27-1.69,0-.04.02-.07.03-.1,0-.03-.02-.06-.02-.1v-.02c-.06-.04-.07-.26-.1-.38-.03-.11-.05-.22-.08-.34l-.39,3.03c.02.12.08.24.16.36M44.32,11.64c.24,0,.48-.02.74-.07.16-.03.34-.06.53-.11.24-.06.49-.16.73-.29-.07-.21-.12-.41-.15-.6-.04-.24-.06-.46-.08-.68-.08-1.15.14-2.06.71-2.98.42-.67.95-1.27,1.54-1.74-.32-.61-.78-1.17-1.33-1.62-.69-.56-1.66-.86-2.69-.86-.2,0-.41,0-.62.04-1.14.14-2.13.65-2.71,1.41-.97,1.31-1.4,3.61-.44,5.18.48.79,1.25,1.48,2.16,1.94.52.26,1.03.39,1.6.39M55.18,5.99c.35-.44.69-.89,1.02-1.34.15-.2.44-.48.6-.73-.32-.04-.64-.1-.94-.19-.28-.08-.48-.24-.71-.41-.17-.13-.34-.28-.51-.41-.04-.04-.14-.09-.19-.14-.03.06-.05.12-.06.2-.16.76-.39,1.69-.34,2.46v.03c.09.08.2.15.31.22.26.15.55.26.82.31M55.53,6.02c.13,0,.25-.02.35-.06.37-.16,1.86-1.32,2.44-1.87-.39-.05-.78-.08-1.18-.13-.18.35-.58.7-.8,1-.27.35-.53.71-.81,1.05M46.58,11.02c.33-.2.64-.43.89-.63.06-.05.12-.11.18-.18-.02-.13-.03-.26-.04-.38-.06-.84.1-1.52.52-2.19.5-.81,1.21-1.46,1.99-1.83.12-.06.25-.11.38-.15h0c.38-.13.78-.18,1.19-.18,1.21,0,2.45.51,3.23,1.21.68.62,1.07,1.6,1.09,2.69.03,1.18-.38,2.31-1.08,3.02-.8.81-1.96,1.41-3.21,1.41-.69,0-1.4-.18-2.09-.61-.35-.22-.63-.43-.85-.65-.12-.12-.22-.24-.3-.36,0-.01-.02-.02-.02-.03-.3.23-.64.46-1,.67.02.04.05.08.07.11.31.44.78.85,1.48,1.29.89.55,1.8.79,2.69.79,1.61,0,3.11-.77,4.15-1.83,1.72-1.75,1.86-5.21.29-7.04-.06.04-.12.07-.16.09-.14.06-.31.08-.49.08-.07,0-.14,0-.21-.01-.02.02-.05.03-.07.03-.04,0-.07-.02-.1-.05-.3-.05-.62-.17-.92-.34-.19-.11-.35-.23-.49-.37-.23-.23-.38-.49-.41-.75v-.04l.04-.28c-.57-.16-1.13-.23-1.68-.23-.74,0-1.43.14-2.02.43-1.02.48-1.94,1.33-2.6,2.39-.53.85-.74,1.72-.66,2.8,0,.21.04.42.07.65.02.15.07.32.12.5M51.71,13.53c1.16,0,2.24-.56,2.99-1.32.65-.66,1.02-1.71,1-2.81-.02-1.01-.38-1.91-1-2.48-.73-.66-1.89-1.14-3.02-1.14-.34,0-.68.04-1,.14.3,1.36.13,2.76-.51,4.04-.44.88-.87,1.49-1.37,1.91-.04.03-.09.07-.13.1,0,.02.02.03.03.05.22.32.56.61,1.06.93.64.4,1.3.57,1.94.57M47.88,9.92c.17-.23.33-.5.49-.83.31-.62.45-1.26.45-1.91-.17.2-.33.41-.47.63-.38.61-.53,1.23-.48,2.01v.09M56.4,0h-.07l-.19.04c-.7.14-1.94.42-2.38.68-.11.06-.18.17-.19.29l-.37,2.87c-.5-.11-1-.17-1.49-.17-.52,0-1.01.06-1.47.19-.47-.82-1.11-1.57-1.86-2.18-1.03-.84-2.52-1.32-4.07-1.32-.31,0-.61.02-.92.05-1.73.21-3.24,1-4.13,2.17-1.46,1.96-2.09,5.41-.64,7.8.29.47.64.93,1.06,1.34.62.62,1.35,1.14,2.16,1.54s1.6.59,2.46.59c.36,0,.73-.03,1.12-.1.24-.04.5-.09.78-.16.3-.08.62-.2.96-.37.12.16.25.32.4.47.31.31.7.61,1.2.92.93.58,1.93.87,2.98.87,1.64,0,3.3-.73,4.54-1.99,1.83-1.86,2.05-5.43.52-7.52.75-.53,1.94-1.49,2.19-1.84.05-.07.08-.15.08-.24l-.04-2.18h0v-.08s-.02-.06-.03-.08h0c-.18-.43-2.33-1.58-2.53-1.6h-.07ZM54.48,1.28c.47-.16,1.2-.32,1.58-.4.13.15.24.29.34.41-.32.13-.65.25-.97.37-.25.09-.5.18-.75.27-.06-.22-.13-.46-.2-.65h0ZM44.29,13.12c-.74,0-1.41-.16-2.11-.51-1.23-.61-2.25-1.53-2.89-2.59-1.28-2.1-.7-5.16.6-6.91.76-1,2.07-1.68,3.59-1.86.27-.03.55-.05.83-.05,1.37,0,2.67.42,3.57,1.14.63.51,1.18,1.14,1.6,1.83,0,0-.02,0-.03.01-.25.12-.5.27-.76.44-.34-.57-.79-1.09-1.31-1.5-.77-.63-1.88-.98-3.03-.98-.23,0-.46,0-.68.04-1.29.15-2.41.74-3.08,1.62-1.08,1.46-1.55,4.02-.47,5.8.21.35.48.69.79,1,.46.46,1,.84,1.6,1.14.61.3,1.19.44,1.84.44.27,0,.54-.02.84-.07.18-.03.37-.07.57-.12.74-.19,1.57-.74,2.1-1.19.05-.04.1-.09.15-.14h0c.1-.05.17-.12.21-.22.25-.29.49-.66.71-1.12.38-.76.55-1.55.51-2.36.27-.25.55-.45.85-.6.18,1.13,0,2.28-.53,3.35-.4.81-.8,1.37-1.24,1.74-.65.55-1.65,1.22-2.51,1.44-.26.06-.49.11-.71.15-.35.06-.67.09-.99.09h-.02ZM57.48,3.46s0-.08-.02-.12c0-.06-.02-.11-.02-.16-.02-.32-.04-.73-.05-1.15.24.06.52.09.84.13l.03,1.38c-.19-.02-.37-.04-.56-.05-.07,0-.14,0-.21-.02h0ZM55.15,2.59s.04,0,.07-.02c.08-.02.16-.05.24-.08l.22-.08c.3-.11.62-.22.93-.35,0,.27.02.56.04.9,0,.07,0,.16.02.25,0,.05,0,.1.02.15-.26-.04-.48-.1-.67-.17-.24-.09-.47-.28-.69-.47-.05-.05-.11-.09-.16-.13h-.02ZM44.34,11.39c-.52,0-1-.11-1.49-.36-.88-.44-1.61-1.09-2.06-1.84-.91-1.49-.49-3.66.43-4.91.54-.7,1.46-1.18,2.54-1.31.19-.02.39-.04.59-.04.97,0,1.9.29,2.53.81.47.38.87.85,1.17,1.37-.55.47-1.03,1.04-1.43,1.67-.6.96-.83,1.92-.75,3.13.02.22.04.45.08.7.02.13.05.28.09.43-.18.08-.34.14-.49.18-.19.05-.35.08-.51.11-.25.04-.48.06-.7.06h0ZM54.32,5.34c-.03-.62.13-1.35.27-2l.03-.15.11.09c.1.08.2.16.29.24.23.18.47.36.79.46.17.05.35.09.56.13-.03.04-.07.08-.1.11-.09.1-.18.2-.24.29-.3.41-.61.81-.92,1.21-.2-.05-.41-.14-.6-.24-.07-.04-.13-.08-.19-.12h0v-.02ZM56.37,5.36c.06-.08.13-.17.19-.25.08-.1.18-.22.28-.33.16-.18.33-.36.45-.55l.26.03c.07,0,.14.01.2.02-.42.36-.97.79-1.39,1.09h.01ZM46.76,10.63s-.02-.1-.03-.14c-.03-.23-.06-.43-.07-.63-.07-1.03.12-1.84.63-2.65.63-1.01,1.52-1.83,2.49-2.29.54-.26,1.2-.4,1.91-.4.46,0,.93.06,1.4.17v.17c.03.22.13.44.27.64-.53-.18-1.09-.27-1.63-.27-.44,0-.86.06-1.25.19h0s-.03,0-.04.01c-.14.05-.27.1-.39.16-.82.39-1.57,1.08-2.1,1.92-.45.72-.62,1.44-.56,2.34,0,.09.02.18.03.28-.03.03-.05.05-.08.07-.18.15-.37.3-.57.43h-.01ZM51.03,6.09c.22-.05.46-.07.7-.07,1.01,0,2.13.42,2.85,1.07.56.52.89,1.36.91,2.3.02,1.03-.32,2.02-.93,2.63-.77.78-1.82,1.24-2.82,1.24-.63,0-1.24-.18-1.8-.53-.4-.25-.69-.48-.89-.72.5-.44.94-1.07,1.38-1.95.63-1.26.83-2.63.58-3.97h.02ZM55.53,6.56c.22,0,.41-.03.58-.1h0c1.35,1.77,1.17,4.95-.41,6.55-1.08,1.1-2.57,1.75-3.98,1.75-.9,0-1.76-.25-2.56-.75-.61-.38-1.04-.74-1.33-1.11.2-.12.4-.26.59-.4.06.08.13.15.2.22.23.23.52.45.89.69.69.43,1.44.65,2.23.65,1.22,0,2.46-.54,3.38-1.48.75-.76,1.18-1.96,1.16-3.21-.02-1.12-.42-2.13-1.1-2.8h.06s.08,0,.12-.02h.17ZM48.21,8.95c.05-.3.16-.59.31-.87-.07.3-.17.59-.31.87h0Z"/></svg>