<?xml version="1.0" encoding="UTF-8"?>
<svg id="Capa_1" data-name="Capa 1" xmlns="http://www.w3.org/2000/svg" viewBox="0 0 590.01 71.52">
  <defs>
    <style>
      .cls-1 {
        fill: #c6006d;
      }

      .cls-2 {
        fill: #fff;
      }

      .cls-3 {
        fill: #ff71e4;
        stroke: #af1760;
        stroke-width: 1.18px;
      }

      .cls-3, .cls-4, .cls-5, .cls-6 {
        stroke-linecap: round;
        stroke-linejoin: round;
      }

      .cls-7 {
        fill: #8e005b;
      }

      .cls-4 {
        stroke: #ff29a9;
      }

      .cls-4, .cls-5, .cls-6 {
        stroke-width: .93px;
      }

      .cls-4, .cls-5, .cls-6, .cls-8 {
        fill: none;
      }

      .cls-5 {
        stroke: #ff4da6;
      }

      .cls-9 {
        fill: #e852b2;
      }

      .cls-6 {
        stroke: #f946c6;
      }

      .cls-10 {
        fill: #d1188b;
      }

      .cls-8 {
        stroke: #d1188b;
        stroke-miterlimit: 10;
      }

      .cls-11 {
        fill: #c6186b;
      }

      .cls-12 {
        fill: #ff4da6;
      }

      .cls-13 {
        fill: #ff29a9;
      }
    </style>
  </defs>
  <g>
    <path class="cls-1" d="M585.11,29.25c5.24,6.31,7.22,16.75,1.17,23.2-5.87,6.37-15.55,7.02-23.46,4.96-7.96-2.02-15.14-6.03-22.95-8.33-3.85-1.19-7.78-2.13-11.75-2.81-5.84-.98-12.03-1.37-17.51,1.05-4.31,1.93-8.13,5.81-8.75,10.61-.43,2.6,.43,5.76,2.97,6.84,5.93,2.37,10.75-2.87,11.76-8.46,2.31-11.1-1.62-25.34-12.71-30.16-7.37-3.08-15.77-.6-22.35,3.41-6.88,4.21-12.37,10.31-18.44,15.64-6.11,5.51-13.36,9.91-21.23,12.42-9.77,3.19-21.08,3.84-30.36-1.26-9.16-5-15.35-17.08-10.34-27.01,6.69-13.04,24.2-13.58,30.39,.14,2.65,5.76,.71,14.37-6.04,16.19-5.05,1.62-11.76-.25-13.77-5.54-.38-.84-.56-4.13,.76-3.8,.33,.1,.52,.46,.41,.79-.55,1.74,.17,3.61,1.52,4.91,3.93,4,11.97,3.86,15.1-.95,4.39-6.85-.4-16.13-7.43-18.97-11.62-5.03-24.06,7.52-20.39,19.28,3.29,12.17,16.02,17.87,27.88,16.8,7.96-.56,15.74-3.25,22.6-7.28,10.53-6.03,17.89-16.6,28.32-23.05,7.05-4.34,16.13-6.89,24.14-3.52,8.01,3.34,12.62,11.69,13.98,19.89,1.17,7.73,.7,19.19-7.92,22.39-6.28,2.11-11.68-2.33-10.58-8.94,.71-5.43,4.95-9.8,9.8-11.95,5.81-2.57,12.44-2.17,18.49-1.12,4.04,.7,8.04,1.67,11.95,2.9,11.6,3.35,22.26,11.05,34.63,9.15,14.29-2.16,17.64-15.95,9.24-26.7-.2-.25-.16-.61,.09-.81,.25-.2,.61-.16,.8,.09h0Z"/>
    <path class="cls-1" d="M552.15,32.49c-7.15,6.63-20.96,14.93-30.98,12.36-.46-.11-.39-.82,.08-.85,8.31-.6,16.46-2.83,23.71-6.98,2.4-1.43,4.66-3.11,6.58-5.13,.38-.41,1.02,.21,.6,.6h0Z"/>
    <g>
      <path class="cls-10" d="M536.28,41.95c1.52,2.12,4.72,2.27,7.13,1.29,3.51-1.42,5.98-4.58,8.09-7.73,1.41-2.1,2.73-4.25,4.05-6.41-4.46-.45-9.04,.28-13.15,2.1-1.97,.87-3.88,2.04-5.16,3.76-1.28,1.73-1.84,4.11-.99,6.09,.07,.17,.16,.37,.07,.53-.09,.16-.42,.09-.36-.08"/>
      <path class="cls-7" d="M536.63,41.71c1.23,1.73,3.69,2.01,5.64,1.5,6.34-1.86,9.36-9.34,12.65-14.48,0,0,.56,1.14,.56,1.14-4.41-.31-8.89,.52-12.89,2.36-3.54,1.51-7.1,4.79-5.76,8.88,.02,.2,.17,.56-.29,.95-.37,.18-.65,.13-.91-.17-.26-.36,.05-.91,.49-.76,.22,.08,.33,.32,.25,.55,.13-.38-.35-.61-.5-.23-2.55-4.56,1.78-9.46,5.9-11.01,4.32-1.94,9.18-2.66,13.87-2.04,.42,.03,.74,.4,.68,.82-.01,.11-.06,.22-.12,.31,0,0-3.74,5.57-3.74,5.57-2.99,4.45-7.42,10.06-13.49,8.99-1.16-.24-2.3-.86-3.03-1.86-.14-.19-.1-.46,.09-.59,.19-.14,.46-.1,.6,.1h0Z"/>
    </g>
    <path class="cls-1" d="M525.47,44.73c7.28,2.08,19.38,10.79,22.47,17.79,.2,.42-.39,.82-.71,.48-6.8-6.24-12.61-14.92-21.92-17.43-.57-.08-.41-.97,.16-.83h0Z"/>
    <g>
      <path class="cls-10" d="M539.59,53.67c4.18-2.82,10.36,3.12,11.95,7.62,1.1,3.13,1.08,6.67,2.8,9.5-2.68-1.48-5.87-1.69-8.71-2.84-2.37-.97-4.47-2.6-5.98-4.68-1.04-1.43-1.81-3.1-1.92-4.86-.11-1.76,.51-3.62,1.86-4.75"/>
      <path class="cls-7" d="M539.35,53.32c4.29-2.53,8.87,1.76,11.21,5.11,2.58,3.47,2.15,8.49,4.39,12.01,.42,.6-.34,1.38-.95,.99-4.05-1.87-9.37-1.7-12.86-5.08-3.76-2.91-6.35-9.62-1.82-12.99,.41-.29,.9,.3,.55,.65-4.3,5.61,2.71,12.52,8.21,13.82,2.12,.65,4.49,1.1,6.61,2.36l-.95,.99c-1.14-2.05-1.47-4.29-1.85-6.38-.49-4.19-2.85-8.06-6.43-10.31-1.67-1.07-3.91-1.66-5.63-.45-.46,.32-.95-.39-.48-.7h0Z"/>
    </g>
    <path class="cls-1" d="M442.93,55.9c5.48-1.95,11.13-3.14,16.81-4.33,5.69-1.04,11.52-2.06,17.31-1.06,.47,.08,.45,.8-.02,.85-8.51,1.24-17.13,1.25-25.57,2.97-2.8,.58-5.6,1.28-8.22,2.36-.51,.22-.86-.59-.32-.79h0Z"/>
    <path class="cls-1" d="M437.45,57.54c1.79-.85,3.17-2.4,4.26-4.08,3.38-5.18,4.25-11.46,7.44-16.77,.23-.39,.87-.17,.8,.28-.65,6.34-6.48,18.12-12.11,21.32-.5,.27-.91-.5-.39-.76h0Z"/>
    <path class="cls-1" d="M426.66,58.97c7.41,.92,14.83,1.76,22.1,3.47,.7,.1,9.37,2.68,6.74,3.45-2.47-.34-4.85-.89-7.24-1.51-7.13-1.84-14.27-4.13-21.66-4.56-.56-.02-.52-.91,.06-.85h0Z"/>
    <path class="cls-1" d="M462.03,51.7c2.53-8.15,12.51-8.74,19.23-5.77,2.31,.92,4.51,2.05,6.67,3.18,.36,.19,.5,.63,.31,.99-.16,.3-.49,.45-.81,.38-1.05-.17-2.11,.21-3.11,.83-1,.63-1.94,1.46-2.93,2.3-4.15,3.25-9.58,6.36-15.06,4.41-2.32-.96-4.26-3.17-4.24-5.77,.03-.35,.09-.67,.51-.87,.18-.06,.36-.08,.56,.05,.24,.19,.23,.38,.24,.48,.02,.49-.61,.83-.92,.35-.13-.19-.08-.46,.11-.59,.19-.13,.46-.08,.59,.11-.01-.02-.03-.04-.05-.06-.13-.15-.49-.11-.58,.07-.18,.21,.15,.55,.42,.45,.22-.15,.12-.11,.16-.03,.31,1.97,2.01,3.5,3.84,4.12,4.57,1.33,9.61-1.43,13.26-4.16,2.1-1.58,4.5-3.76,7.47-3.15,0,0-.5,1.37-.5,1.37-4.11-2.44-8.41-4.95-13.27-5.26-4.62-.44-9.89,2.04-11.09,6.76-.14,.54-.97,.33-.82-.22h0Z"/>
    <g>
      <path class="cls-10" d="M444.58,49.78c3.34-.38,6.26-2.72,7.89-5.67,1.62-2.95,2.06-6.43,1.83-9.78-.23-3.36-1.1-6.63-1.96-9.88-1.22,2.41-3.99,3.61-5.73,5.69-1.73,2.06-6.62,7.11-2.46,19.53"/>
      <path class="cls-7" d="M444.53,49.36c5-.53,8.47-5.32,9.11-10.08,.77-4.97-.65-9.88-2.06-14.63,0,0,1.44,.15,1.44,.15-1.13,2.34-3.48,3.63-5.15,5.35-1.54,1.64-2.91,3.51-3.59,5.67-1.5,4.46-.71,9.17,.26,13.71,.06,.23-.09,.47-.32,.52-.2,.04-.4-.06-.48-.25-2.51-5.61-3.35-12.74,.39-18.07,.52-.76,1.15-1.51,1.75-2.2,1.8-2.09,4.67-3.34,5.76-5.43,.28-.65,1.31-.54,1.44,.15,1.78,7.19,3.51,15.98-1.75,22.18-1.7,1.95-4.05,3.44-6.7,3.77-.56,.06-.66-.78-.1-.84h0Z"/>
    </g>
    <g>
      <path class="cls-10" d="M442.78,61.96c1.64-1.95,4.33-2.79,6.87-2.67,2.54,.12,4.97,1.09,7.23,2.27,2.89,1.5,5.66,3.42,7.43,6.15-2.8,.42-5.53,1.26-8.33,1.73-2.8,.47-5.76,.53-8.37-.56-2.62-1.09-4.8-3.55-4.9-6.38,0-.15-.01-.32-.13-.42-.11-.1-.35-.02-.31,.13"/>
      <path class="cls-7" d="M442.45,61.69c4.89-5.24,12.67-2.09,17.75,1.19,.91,.57,6.03,4.4,4.54,5.43-5.45,1.16-11.33,3.68-16.98,1.68-3.1-1.12-5.77-4.11-5.59-7.53,.02-.12-.02-.12,.1-.02,.13,.07,.19,.04,.24,.02,.12-.04,.21-.26,.15-.38,.06,.23-.07,.46-.3,.52-.44,.13-.71-.44-.45-.77,.24-.29,.54-.37,.91-.16,.35,.28,.34,.58,.37,.73,.23,1.74,1.28,3.25,2.64,4.33,5.37,4.05,12.31,.92,18.34,.23,0,0-.51,1.13-.51,1.13-3.56-5.64-15.09-12.08-20.59-5.87-.34,.44-1.03-.13-.65-.55h0Z"/>
    </g>
    <g>
      <path class="cls-12" d="M584.54,29.19c-.92,.69-1.93,1.27-3,1.71-.46,.19-1.01,.35-1.44,.1-.49-.28-.58-.99-.32-1.49,.26-.5,.77-.82,1.28-1.04,.52-.22,1.07-.38,1.54-.68,.77-.48,1.29-1.34,1.37-2.24,.04-.43-.02-.88,.09-1.3,.11-.42,.45-.84,.89-.82,.36,.02,.65,.33,.76,.67,.11,.34,.07,.72,.03,1.08-.16,1.52-.27,2.79-1.2,4.01"/>
      <path class="cls-13" d="M584.71,29.42c-1.16,.81-2.33,1.52-3.7,1.95-.25,.06-.53,.08-.82,0-1.63-.69-.75-2.68,.55-3.19,1.85-.7,2.83-1.53,2.61-3.53-.1-.96,.98-2.4,2.19-1.75,1.47,.88,.8,2.64,.62,3.9-.19,.94-.66,1.91-1.39,2.57-.12,.11-.31,.1-.42-.02-.08-.09-.1-.23-.04-.34,.59-1.13,.65-2.49,.74-3.73,.04-.58,.12-.92-.13-1.16-.02,0,.03,0,0,0-.03,0-.12,.09-.17,.19-.21,.54-.04,1.17-.29,1.88-.3,1.02-1.12,1.89-2.09,2.25-.8,.32-1.7,.45-2.21,1.12-.44,.57-.11,1.49,.74,1.25,.38-.08,.8-.28,1.2-.46,.8-.38,1.56-.85,2.26-1.4,.3-.24,.67,.25,.35,.47h0Z"/>
    </g>
    <path class="cls-13" d="M579.65,30.37c-2.87-.15-15.64,.97-15.86-2.65-.14-1.9,2.04-2.74,3.47-2.91,0,0,2.92-.57,2.92-.57l-.19,.85c-1.78-1.34-4.6-3.22-3.78-5.81,.67-1.95,3.12-3.13,4.95-2.07,2.6,1.23,4.87,3.08,6.87,5.06,1.59,1.6,3.08,3.25,4.52,4.96,.23,.26-.15,.65-.41,.42-3.36-2.83-6.41-6.14-10.14-8.45-.92-.53-1.93-1.17-2.66-1.07-1.12,.15-2.52,1.52-1.99,2.77,.67,1.35,1.97,2.52,3.19,3.43,.21,.15,.26,.44,.11,.65-.08,.11-.19,.17-.31,.19l-2.94,.45c-.96,.15-1.93,.33-2.49,.96-2.58,3.4,7.02,3.12,8.79,3.28,1.98,.05,3.96-.01,5.95-.07,.38-.02,.4,.59,.01,.59h0Z"/>
    <path class="cls-13" d="M573.99,20.03c-2.07-1.29-5.41-5.74-1.64-6.98,1.84-.2,3.22,1.28,4.76,1.98,0,0-.65,.36-.65,.36-.02-2.23,1-5.66,3.85-5.37,3.53,.83,3.89,5.25,4.56,8.14,.28,1.74,.44,3.5,.35,5.27,0,.16-.15,.29-.31,.28-.14,0-.26-.12-.28-.26-.57-3.33-1.26-6.77-2.4-9.92-.89-2.49-3.25-3.32-4.37-.49-.32,.75-.51,1.56-.56,2.39,0,.31-.39,.5-.64,.33-.93-.59-1.89-1.23-2.81-1.76-.87-.54-1.99-.47-2.49,.47-.46,.85,.07,1.95,.65,2.83,.59,.9,1.39,1.67,2.29,2.25,.33,.2,0,.71-.32,.49h0Z"/>
    <g>
      <path class="cls-2" d="M552.91,31.19c-4.1,2.09-6.29,6.57-10.28,8.85-1.31,.81-2.75,1.43-4.27,1.72-.11,.02-.21-.05-.23-.16-.02-.09,.03-.17,.1-.21,2.67-1.37,5.26-2.75,7.5-4.75,2.28-1.96,4.28-4.36,6.99-5.8,.22-.12,.42,.24,.18,.35h0Z"/>
      <path class="cls-2" d="M550.96,67.29c-2.14-3.18-4.73-6.09-7.8-8.39-1.01-.76-2.04-1.47-3.09-2.21-.09-.06-.11-.19-.05-.28,.05-.07,.14-.1,.22-.08,1.28,.36,2.45,1.03,3.48,1.84,3.1,2.43,5.23,5.79,7.56,8.9,.16,.2-.18,.45-.32,.23h0Z"/>
      <path class="cls-2" d="M451.86,28.37c-.36,4.95-1.37,9.93-3.57,14.4-.74,1.49-1.64,2.91-2.76,4.15-.07,.08-.2,.09-.28,.02-.07-.06-.08-.16-.04-.24,1.33-2.57,3.26-6.11,4.24-8.8,1.18-3.04,1.88-6.29,2.01-9.56,0-.25,.42-.24,.39,.02h0Z"/>
      <path class="cls-2" d="M460.51,66.95c-3.79-1.22-7.76-1.64-11.71-1.93-1.31-.11-2.62-.22-3.94-.46-.11-.02-.18-.12-.16-.23,.02-.09,.08-.15,.17-.16,1.34-.2,2.68-.18,4.01-.06,2.67,.23,5.28,.84,7.88,1.46,1.3,.29,2.58,.67,3.87,1.01,.25,.06,.14,.46-.11,.38h0Z"/>
    </g>
    <path class="cls-6" d="M428.85,27.08c-4.34-4.15-10.37-4.81-15.57-3.26-5.19,1.55-9.56,5.96-10.59,11.28-.58,3.01-.78,7.35,.55,11.14"/>
    <path class="cls-4" d="M589.02,38.98c.61,3.53-.86,7.21-3.3,9.83-2.44,2.62-5.75,4.29-9.17,5.37-8.24,2.61-17.46,1.96-25.26-1.76"/>
    <path class="cls-13" d="M550.33,51.8c3.2,1.77,6.11,3.94,9.03,6.12,2.86,2.25,5.76,4.58,7.7,7.72,.16,.25-.19,.54-.41,.34-5.46-4.62-10.12-10.39-16.57-13.71-.32-.14-.07-.65,.24-.48h0Z"/>
    <path class="cls-13" d="M560.25,59.05c3-1.45,6.58,.03,8.48,2.54,1.99,2.46,2.78,5.6,3.51,8.59,.14,.51-.61,.8-.85,.34-.84-1.25-2.57-1.3-3.99-1.54-3.88-.58-9.51-3.09-8.45-7.94,.07-.58,1.36-2.72,1.89-1.56-.01,.29-.13,.35-.34,.41-.44,.07-.48-.66-.01-.58,.14,.04,.23,.18,.19,.33,.07-.18-.2-.37-.34-.26-.01,.01-.07,.04-.07,.18,.04,.15,.1,.16,.11,.18,.16,.04,.1,.01,.08,.06-.8,.97-.83,2.41-.34,3.53,1.27,2.7,4.67,3.94,7.48,4.52,1.62,.33,3.64,.55,4.59,2.21,0,0-.85,.34-.85,.34-.56-2.95-1.17-6.03-3.04-8.44-1.73-2.34-5.07-3.82-7.8-2.41-.31,.17-.56-.33-.24-.48h0Z"/>
    <path class="cls-13" d="M540.49,48.06c5.3,1.08,10.78,.41,16.12-.04,1.79-.17,3.56-.31,5.38-.36,.15,0,.28,.11,.28,.26,0,.12-.07,.22-.17,.27-3.48,1.25-7.2,1.26-10.83,1.24-.58-.02-13.26-.36-10.77-1.36h0Z"/>
    <path class="cls-13" d="M553.14,48.87c1.26,2.8,4.79,3.73,7.6,2.97,2.97-.72,5.36-2.74,7.64-4.7,0,0,.46,.79,.46,.79-1.77,.7-3.5-.38-4.97-1.13-3.01-1.53-7.99-3.1-10.18,.33-.27,.45-.43,.99-.41,1.51-.02,.05,.05,.07-.1,0-.02,0-.07-.03-.2,.07-.09,.11-.06,.17-.06,.18,.04,.15,.32,.19,.41,.05-.09,.21-.68,.13-.42-.34,.18-.24,.54-.06,.57,.19,0,.07,.03,.18-.09,.33-.16,.13-.27,.1-.34,.09-.36-.13-.36-.35-.41-.48-.3-1.61,.67-3.17,1.99-4.04,3.17-1.81,6.88-.47,9.8,1.08,1.27,.7,2.66,1.74,4.1,1.27,.48-.18,.85,.51,.44,.8-2.44,1.88-5.01,3.85-8.1,4.53-3.05,.78-6.78-.3-8.22-3.3-.15-.32,.35-.55,.49-.22h0Z"/>
  </g>
  <g>
    <path class="cls-1" d="M5.79,29.96C-2.57,40.62,.67,54.51,15.03,56.66c12.37,1.91,23.03-5.8,34.63-9.15,9.73-2.72,20.62-5.82,30.44-1.78,3.89,1.74,7.3,4.79,8.96,8.8,1.74,3.99,1.32,9.85-3.12,11.85-4.25,1.9-9.35,0-11.82-3.76-5.41-8.57-3.57-21.84,1.72-30.08,7.86-12.28,22.39-11.84,33.68-4.69,10.43,6.45,17.78,17.01,28.32,23.04,13.11,7.68,32.3,11.67,44.51,.4,5.59-5.27,8.62-14.06,4.99-21.2-2.56-5.16-7.99-9.02-13.82-9.13-5.82-.1-11.34,3.83-13.62,9.12-3.4,8.07,1.49,16.27,10.71,14.57,3.41-.68,7.61-3.69,6.51-7.55-.1-.33,.08-.68,.41-.78,.33-.11,.69,.09,.79,.42,.72,2.19-.19,4.65-1.79,6.19-3.1,3.13-7.87,4.02-12,2.73-6.76-1.81-8.69-10.43-6.04-16.19,3.31-8.08,13.24-12.63,21.31-8.78,13.44,6.21,13.94,22.24,3.79,31.87-12.76,11.92-32.91,8.02-46.7-.04-10.69-6.08-18.03-16.56-28.39-22.98-10.41-6.54-23.76-7.32-31.04,4.04-4.92,7.6-6.73,20.03-1.82,27.98,2.77,4.71,11.49,5.52,12.51-.89,.63-3.79-1.21-7.57-3.93-10.17-9.21-8.46-23.28-4.4-34.05-1.45-7.82,2.3-14.99,6.31-22.95,8.33-7.91,2.06-17.58,1.42-23.46-4.96-6.05-6.45-4.07-16.88,1.17-23.2,.2-.25,.56-.29,.81-.09,.25,.2,.28,.56,.09,.8h0Z"/>
    <path class="cls-1" d="M38.46,31.89c7.93,7.88,19.38,11.2,30.29,12.11,.47,.02,.54,.74,.08,.85-10,2.57-23.82-5.73-30.98-12.36-.4-.38,.21-1.02,.6-.6h0Z"/>
    <g>
      <path class="cls-10" d="M53.72,41.95c-1.52,2.12-4.72,2.27-7.13,1.29-3.51-1.42-5.98-4.58-8.09-7.73-1.41-2.1-2.73-4.25-4.05-6.41,4.46-.45,9.04,.28,13.15,2.1,1.97,.87,3.88,2.04,5.16,3.76,1.28,1.73,1.84,4.11,.99,6.09-.07,.17-.16,.37-.07,.53,.09,.16,.42,.09,.36-.08"/>
      <path class="cls-7" d="M54.07,42.2c-1.49,2.01-4.27,2.33-6.53,1.76-6.64-1.92-10-9.29-13.74-14.46-.32-.45,.01-1.11,.56-1.14,2.33-.31,4.72-.27,7.06,.05,2.34,.34,4.63,1.03,6.81,1.99,4.11,1.56,8.45,6.46,5.9,11.01-.15-.39-.63-.14-.5,.23-.08-.22,.03-.46,.25-.55,.44-.16,.75,.4,.49,.76-.25,.3-.54,.35-.91,.17-.47-.39-.31-.74-.29-.95,1.33-4.08-2.22-7.36-5.76-8.88-4-1.84-8.48-2.67-12.89-2.36,0,0,.56-1.14,.56-1.14l3.41,5.73c2.23,3.63,4.98,7.56,9.25,8.76,1.95,.51,4.42,.23,5.64-1.5,.31-.46,1.03,.05,.69,.5h0Z"/>
    </g>
    <path class="cls-1" d="M64.7,45.56c-9.32,2.51-15.12,11.18-21.92,17.43-.31,.34-.91-.06-.7-.48,3.08-6.98,15.18-15.71,22.47-17.79,.56-.13,.75,.74,.16,.83h0Z"/>
    <g>
      <path class="cls-10" d="M50.41,53.67c-4.18-2.82-10.36,3.12-11.95,7.62-1.1,3.13-1.08,6.67-2.8,9.5,2.68-1.48,5.87-1.69,8.71-2.84,2.37-.97,4.47-2.6,5.98-4.68,1.04-1.43,1.81-3.1,1.92-4.86,.11-1.76-.51-3.62-1.86-4.75"/>
      <path class="cls-7" d="M50.18,54.02c-3.85-2.27-7.97,1.84-10.01,4.88-2.55,3.71-1.69,8.3-3.9,12.27,0,0-.95-.99-.95-.99,4.07-2.29,8.83-2.09,12.26-5.34,3.01-2.6,5.55-7.39,2.55-10.86-.34-.36,.17-.93,.56-.64,4.53,3.38,1.94,10.08-1.82,12.99-3.5,3.38-8.81,3.22-12.86,5.08-.61,.39-1.37-.4-.95-.99,2.24-3.52,1.8-8.53,4.39-12.01,2.34-3.35,6.92-7.64,11.21-5.11,.47,.32-.01,1.02-.48,.7h0Z"/>
    </g>
    <path class="cls-1" d="M146.76,56.69c-10.74-4.2-22.52-3.67-33.79-5.33-.47-.05-.5-.78-.02-.85,8.69-1.33,17.36,1.07,25.78,2.95,2.81,.69,5.6,1.45,8.34,2.44,.53,.2,.22,1.02-.32,.79h0Z"/>
    <path class="cls-1" d="M152.17,58.3c-5.62-3.2-11.46-14.97-12.12-21.32-.06-.44,.58-.66,.8-.28,3.19,5.3,4.06,11.58,7.44,16.77,1.1,1.68,2.48,3.23,4.26,4.08,.51,.24,.12,1.04-.39,.76h0Z"/>
    <path class="cls-1" d="M163.41,59.82c-9.91,.53-19.15,4.58-28.89,6.07-2.69-.75,6.13-3.37,6.74-3.45,2.41-.62,4.87-1.06,7.32-1.45,4.93-.72,9.81-1.49,14.78-2.02,.56-.06,.64,.82,.06,.85h0Z"/>
    <path class="cls-1" d="M127.15,51.91c-1.21-4.73-6.47-7.2-11.09-6.76-4.85,.31-9.15,2.81-13.27,5.26,0,0-.5-1.37-.5-1.37,2.97-.61,5.37,1.57,7.47,3.15,4.29,3.24,11.64,7.06,16.04,2.3,.55-.63,.94-1.43,1.07-2.25,.04-.08-.06-.12,.16,.03,.21,.09,.51-.16,.47-.33-.03-.26-.44-.39-.63-.19-.02,.02-.04,.04-.05,.06,.13-.19,.4-.25,.59-.11,.24,.16,.24,.51,.02,.7-.37,.33-.85-.05-.83-.46,0-.11,0-.29,.24-.48,.2-.13,.38-.11,.56-.05,.42,.2,.48,.53,.51,.87,.03,2.61-1.91,4.81-4.24,5.77-5.47,1.95-10.91-1.17-15.06-4.41-.99-.84-1.93-1.67-2.93-2.3-1-.62-2.06-1.01-3.11-.83-.41,.09-.81-.19-.88-.6-.05-.32,.11-.63,.38-.77,6.29-3.39,14.3-7.11,21.21-3.21,2.17,1.27,4,3.29,4.68,5.8,.14,.54-.68,.76-.82,.22h0Z"/>
    <g>
      <path class="cls-10" d="M145.43,49.78c-3.34-.38-6.26-2.72-7.89-5.67-1.62-2.95-2.06-6.43-1.83-9.78,.23-3.36,1.1-6.63,1.96-9.88,1.22,2.41,3.99,3.61,5.73,5.69,1.73,2.06,6.62,7.11,2.46,19.53"/>
      <path class="cls-7" d="M145.38,50.2c-5.38-.7-9.09-5.7-9.89-10.78-.95-5.09,.27-10.26,1.44-15.18,.1-.41,.51-.67,.93-.57,.24,.06,.42,.21,.52,.42,1.09,2.08,3.97,3.34,5.76,5.43,.6,.69,1.23,1.44,1.75,2.2,3.74,5.33,2.9,12.46,.39,18.07-.19,.46-.93,.23-.81-.26,.51-2.34,.92-4.67,1.05-6.99,.13-2.27-.06-4.57-.79-6.73-.68-2.16-2.05-4.03-3.59-5.67-1.67-1.72-4.01-3-5.15-5.35,0,0,1.44-.15,1.44-.15-1.41,4.75-2.83,9.66-2.06,14.63,.63,4.77,4.1,9.55,9.11,10.08,.56,.05,.46,.92-.1,.84h0Z"/>
    </g>
    <g>
      <path class="cls-10" d="M147.23,61.96c-1.64-1.95-4.33-2.79-6.87-2.67-2.54,.12-4.97,1.09-7.23,2.27-2.89,1.5-5.66,3.42-7.43,6.15,2.8,.42,5.53,1.26,8.33,1.73,2.8,.47,5.76,.53,8.37-.56,2.62-1.09,4.8-3.55,4.9-6.38,0-.15,.01-.32,.13-.42,.11-.1,.35-.02,.31,.13"/>
      <path class="cls-7" d="M146.9,62.24c-5.49-6.2-17.02,.23-20.59,5.87,0,0-.51-1.13-.51-1.13,6.03,.68,12.98,3.82,18.34-.23,1.35-1.07,2.41-2.59,2.64-4.33,.03-.15,.02-.45,.37-.73,.48-.33,1.14,.09,.99,.63-.16,.54-.96,.31-.82-.23-.07,.22,.13,.52,.39,.36,.13-.1,.08-.1,.1,.02,.21,4.8-4.65,8.15-9.07,8.24-4.6,.31-8.86-1.48-13.21-2.28-2.36-.71,3.44-5.06,4.26-5.55,5.08-3.28,12.86-6.43,17.75-1.19,.37,.42-.3,.98-.65,.55h0Z"/>
    </g>
    <path class="cls-12" d="M5.73,28.84c.99,.78,2.21,1.52,3.41,1.84,.38,.07,.6-.02,.69-.23,.25-.54-.23-1.13-.99-1.38-2.33-.56-3.77-1.84-3.78-4.32-.03-.17-.05-.28-.08-.31-.03-.05-.08-.08-.04-.04,.04,.05,.23,.06,.3,.01,.07-.04,.04-.03,.04,0-.09,.18,.08,1.77,.08,2.14,.05,.84,.16,1.57,.46,2.39,.17,.41-.36,.78-.69,.51-1.23-.93-1.64-2.57-1.83-4-.03-.42-.22-1.02,.11-1.84,.63-1.57,2.74-1.55,3.36,0,.35,.72,.1,1.65,.2,2.2,.27,1.93,2.69,1.76,3.61,3.28,.76,1.17-.15,2.85-1.6,2.41-1.4-.45-2.55-1.16-3.75-1.97-.2-.14-.25-.41-.11-.6,.14-.21,.44-.25,.63-.09h0Z"/>
    <path class="cls-12" d="M10.37,29.78c1.98-.05,17.99,.99,14.74-3.21-.57-.63-1.53-.81-2.49-.96l-2.94-.45c-.26-.04-.43-.28-.39-.53,.02-.13,.09-.24,.19-.31,.88-.63,1.68-1.37,2.37-2.2,.61-.73,1.2-1.5,.82-2.42-.31-.78-1.22-1.49-1.98-1.58-.73-.1-1.74,.54-2.66,1.07-1.84,1.13-3.52,2.52-5.17,4-1.66,1.46-3.27,3.02-4.98,4.45-.26,.23-.65-.15-.41-.42,2.47-2.84,11.25-13.32,15.19-9.56,1.81,1.48,1.63,3.67,0,5.18-.78,.86-1.67,1.61-2.64,2.24l-.19-.85,2.92,.57c.95,.19,2.11,.39,2.89,1.29,1.93,2.66-1.24,3.71-3.35,3.91-3.97,.56-7.96,.4-11.95,.36-.38,0-.37-.6,.01-.59h0Z"/>
    <path class="cls-12" d="M15.69,19.54c1.47-.98,3.68-3.24,2.94-5.08-.5-.94-1.62-1.01-2.49-.47-.92,.53-1.88,1.18-2.81,1.76-.2,.12-.46,.06-.58-.13-.22-1.47-.58-3.52-1.98-4.26-1.37-.57-2.56,.89-3.01,2.16-1.14,3.15-1.83,6.59-2.4,9.92-.02,.16-.17,.28-.34,.25-.14-.02-.24-.14-.25-.28-.09-1.77,.08-3.53,.35-5.27,.55-3.02,1.74-9.58,6.2-7.84,1.77,1.14,2.16,3.18,2.21,5.07,0,0-.65-.36-.65-.36,1.53-.7,2.92-2.18,4.76-1.98,3.78,1.24,.43,5.69-1.64,6.98-.32,.22-.65-.29-.32-.49h0Z"/>
    <g>
      <path class="cls-2" d="M37.27,30.84c2.71,1.45,4.71,3.84,6.99,5.8,2.25,2,4.83,3.38,7.5,4.75,.1,.05,.14,.17,.09,.27-.04,.08-.13,.12-.21,.1-1.51-.29-2.95-.91-4.27-1.72-3.99-2.29-6.18-6.76-10.28-8.85-.23-.11-.05-.48,.18-.35h0Z"/>
      <path class="cls-2" d="M38.72,67.06c3.1-4.02,5.93-9.08,11.04-10.73,.21-.06,.35,.24,.17,.35-4.3,2.8-8.08,6.29-10.89,10.61-.14,.22-.48-.02-.32-.23h0Z"/>
      <path class="cls-2" d="M138.53,28.35c.13,6.54,3.19,12.72,6.26,18.35,.05,.1,.01,.22-.08,.27-.08,.04-.18,.02-.24-.04-1.12-1.24-2.02-2.66-2.76-4.15-2.2-4.48-3.2-9.46-3.57-14.4-.02-.25,.39-.28,.39-.02h0Z"/>
      <path class="cls-2" d="M129.38,66.57c5.13-1.3,10.41-3.02,15.76-2.41,.22,.03,.22,.36,0,.39-5.23,.78-10.59,.68-15.65,2.4-.24,.08-.37-.31-.11-.38h0Z"/>
    </g>
    <path class="cls-6" d="M161.16,27.08c4.34-4.15,10.37-4.81,15.57-3.26,5.19,1.55,9.56,5.96,10.59,11.28,.58,3.01,.78,7.35-.55,11.14"/>
    <path class="cls-5" d="M.98,38.98c-.61,3.53,.86,7.21,3.3,9.83,2.44,2.62,5.75,4.29,9.17,5.37,8.24,2.61,17.46,1.96,25.26-1.76"/>
    <path class="cls-12" d="M39.91,52.28c-6.45,3.32-11.1,9.08-16.57,13.71-.22,.2-.57-.09-.41-.34,2.99-4.64,7.72-7.74,12.11-10.92,1.49-1.04,3.01-2.04,4.62-2.92,.31-.17,.57,.33,.24,.48h0Z"/>
    <path class="cls-12" d="M29.51,59.53c-2.73-1.4-6.07,.07-7.8,2.41-1.88,2.41-2.48,5.48-3.04,8.44,0,0-.85-.34-.85-.34,.95-1.65,2.97-1.88,4.59-2.21,3.31-.67,8.18-2.56,7.76-6.6-.07-.52-.28-1.04-.62-1.44-.02-.05-.08-.02,.08-.06,.01-.02,.07-.02,.11-.18,0-.14-.06-.17-.07-.18-.13-.09-.37,.05-.35,.22-.06-.22,.45-.52,.54,0,0,.3-.38,.38-.56,.2-.05-.05-.14-.12-.13-.31,.04-.2,.15-.25,.21-.28,.36-.13,.5,.05,.62,.12,1.24,1.07,1.45,2.9,.96,4.4-1.36,3.39-5.09,4.66-8.34,5.26-1.43,.24-3.17,.3-4,1.56-.26,.44-.98,.13-.84-.36,.73-2.99,1.53-6.13,3.51-8.59,1.9-2.51,5.48-3.99,8.48-2.54,.32,.15,.07,.64-.24,.48h0Z"/>
    <path class="cls-12" d="M49.62,48.58c-5.4,.8-10.89,1.04-16.34,.69-1.81-.15-3.64-.43-5.37-1.08-.14-.05-.21-.21-.16-.35,.04-.11,.15-.18,.27-.17,1.81,.05,3.59,.19,5.38,.36,3.58,.31,7.18,.69,10.77,.6,1.8-.06,3.61-.18,5.35-.56,.34-.08,.46,.47,.1,.52h0Z"/>
    <path class="cls-12" d="M37.35,49.09c-1.44,3-5.17,4.08-8.22,3.3-3.08-.68-5.66-2.65-8.1-4.53-.41-.3-.04-.99,.44-.8,1.44,.47,2.84-.57,4.1-1.27,2.92-1.55,6.63-2.89,9.8-1.08,1.32,.86,2.3,2.42,1.99,4.04-.05,.13-.05,.36-.41,.48-.07,0-.18,.04-.34-.09-.13-.14-.1-.26-.09-.33,.04-.3,.48-.44,.61-.12,.14,.31-.35,.54-.49,.22,.03,.07,.05,.09,.14,.13,.13,.04,.26-.04,.29-.13,0-.02,.03-.08-.06-.18-.12-.1-.17-.07-.2-.07-.16,.07-.09,.06-.1,0,.01-.52-.15-1.06-.41-1.51-2.19-3.43-7.17-1.87-10.18-.33-1.47,.75-3.19,1.84-4.97,1.13,0,0,.46-.79,.46-.79,2.28,1.96,4.67,3.99,7.64,4.7,2.81,.76,6.34-.17,7.6-2.97,.14-.32,.64-.09,.49,.22h0Z"/>
  </g>
  <g>
    <path class="cls-8" d="M214.29,52.41c-1.84,2.68-6.36,2.47-8.41-.05-2.05-2.52-1.7-6.45,.27-9.04,1.97-2.58,5.23-3.93,8.46-4.28,6.87-.73,14.15,3.16,16.83,9.53,2.69,6.36,.09,14.66-6.02,17.88-2.53,1.33-5.44,1.8-8.3,1.83-6.36,.07-12.81-2.03-17.57-6.24-4.77-4.21-7.69-10.58-7.27-16.92,.49-7.47,5.49-14.14,11.88-18.04,6.39-3.89,14.01-5.31,21.49-5.58,23.31-.83,44.77,7.87,64.47,29.59"/>
    <path class="cls-8" d="M285.53,46.44c-3.72-2.71-7.63-5.23-11.95-6.84-4.31-1.61-9.08-2.27-13.56-1.18-2.85,.69-5.59,2.14-7.39,4.45-1.8,2.31-2.54,5.54-1.46,8.27s4.15,4.65,7.01,4.01c2.22-.49,4.02-2.5,4.27-4.77,.25-2.26-1.07-4.62-3.14-5.58-1.22-.57-2.69-.66-3.89-.04-1.19,.62-1.99,2.01-1.73,3.33,.26,1.32,1.71,2.33,3,1.96"/>
    <path class="cls-3" d="M272.74,35.8c-22.02-10.49-39.74-8.84-43.05-7.28-.99,.46-1.77,1.55-1.52,2.61,.37,1.55,2.42,1.87,4,1.74,3.42-.27,6.76-1.08,10.15-1.59,10.69-1.61,20.58,.05,30.41,4.53"/>
    <path class="cls-3" d="M232.65,21.53c-4.14-1.2-8.55-2.57-11.21-5.96-.13-.17-.27-.36-.27-.57,0-.42,.46-.67,.87-.76,2.53-.62,5.13,.72,7.12,2.38,2,1.66,3.7,3.72,5.97,4.99"/>
    <path class="cls-3" d="M225.88,21.78c-3.93,.64-8.33,1.66-11.14,4.48-.27,.27-.55,.6-.56,.99-.02,.56,.56,1,1.12,1.04,.56,.04,1.1-.21,1.6-.46,3.22-1.64,6.11-3.85,8.98-6.05"/>
    <path class="cls-8" d="M374.53,52.41c1.84,2.68,6.36,2.47,8.41-.05,2.05-2.52,1.7-6.45-.27-9.04s-5.23-3.93-8.46-4.28c-6.87-.73-14.15,3.16-16.83,9.53-2.69,6.36-.09,14.66,6.02,17.88,2.53,1.33,5.44,1.8,8.3,1.83,6.36,.07,12.81-2.03,17.57-6.24,4.77-4.21,7.69-10.58,7.27-16.92-.49-7.47-5.49-14.14-11.88-18.04-6.39-3.89-14.01-5.31-21.49-5.58-23.31-.83-44.77,7.87-64.47,29.59"/>
    <path class="cls-8" d="M303.29,46.44c3.72-2.71,7.63-5.23,11.95-6.84,4.31-1.61,9.08-2.27,13.56-1.18,2.85,.69,5.59,2.14,7.39,4.45s2.54,5.54,1.46,8.27c-1.08,2.72-4.15,4.65-7.01,4.01-2.22-.49-4.02-2.5-4.27-4.77-.25-2.26,1.07-4.62,3.14-5.58,1.22-.57,2.69-.66,3.89-.04,1.19,.62,1.99,2.01,1.73,3.33s-1.71,2.33-3,1.96"/>
    <path class="cls-3" d="M316.08,35.8c22.02-10.49,39.74-8.84,43.05-7.28,.99,.46,1.77,1.55,1.52,2.61-.37,1.55-2.42,1.87-4.01,1.74-3.42-.27-6.76-1.08-10.15-1.59-10.69-1.61-20.58,.05-30.41,4.53"/>
    <path class="cls-3" d="M356.17,21.53c4.14-1.2,8.55-2.57,11.21-5.96,.13-.17,.27-.36,.27-.57,0-.42-.46-.67-.87-.76-2.53-.62-5.13,.72-7.12,2.38-2,1.66-3.7,3.72-5.97,4.99"/>
    <path class="cls-3" d="M362.94,21.78c3.93,.64,8.33,1.66,11.14,4.48,.27,.27,.55,.6,.56,.99,.02,.56-.56,1-1.12,1.04-.56,.04-1.1-.21-1.6-.46-3.22-1.64-6.11-3.85-8.98-6.05"/>
    <path class="cls-11" d="M294.8,39.72c-5.58-5.36-14.53-5.76-19.49-12.04-.98-1.25-1.73-2.72-2.08-4.28-.31-1.52-.52-2.93-1.32-4.27-1.66-2.57-3.07-5.59-3.05-8.78-.08-1.64,.24-3.76,1.94-4.58,1.67-.85,3.44-.66,5-.29,1.49,.38,2.91,.79,4.03,.25,1.15-.53,1.94-1.9,3.05-3.09,2.32-2.43,6.13-3.16,9.18-1.77,.73,.34,1.36,.72,1.94,.75,.57,.05,1.19-.29,1.9-.64,2.85-1.34,6.86-1.59,9.02,1.14,.53,.68,.78,1.45,1.2,1.96,.39,.54,.91,.69,1.66,.8,1.47,.24,2.96,.34,4.45,.32,2.21,.01,4.87-.77,7.08,.36,3.82,2.07,4.07,7.14,3.32,10.9-.95,4.6-3.51,9.08-7.53,11.69-2.63,1.7-5.62,2.62-8.36,4.02-4.1,2.04-7.72,4.85-11.38,7.61-.28,.2-.62-.2-.35-.44,3.48-3.02,7.08-6.05,11.19-8.24,2.71-1.43,5.63-2.44,8.16-4.09,5.94-3.69,10.19-12.81,6.03-19.15-2-2.64-5.25-1.43-8.13-1.35-2.01,0-4.06-.08-5.94-.9-1.18-.58-1.44-2.15-2.07-3-1.75-2.42-5.52-2.01-7.9-.75-.64,.32-1.39,.86-2.4,.83-.97-.04-1.71-.5-2.36-.79-1.29-.57-2.77-.7-4.16-.42-1.39,.28-2.7,.97-3.65,2-1.07,1.14-1.83,2.65-3.35,3.45-.82,.44-1.78,.53-2.62,.45-2.15-.21-4.32-1.29-6.38-.39-1.31,.56-1.49,2.05-1.58,3.37-.11,1.47,.12,2.98,.62,4.37,.72,2.14,2.41,3.96,3.05,6.21,1.33,11.51,15.01,11.34,21.68,18.38,.25,.24-.15,.65-.4,.39h0Z"/>
    <path class="cls-11" d="M279.91,7.11c-3.06,13.72,15.84,19.35,15.77,32.4,0,.36-.57,.42-.63,.05-2.29-12.18-18.4-19.1-15.75-32.61,.1-.4,.73-.25,.62,.16h0Z"/>
    <path class="cls-11" d="M272.9,19.53c.47,1.11,.92,2.24,1.52,3.26,.55,1.04,1.53,1.7,2.5,2.43,1.95,1.4,4.04,2.62,6.14,3.84,4.16,2.47,8.72,5.01,11.21,9.36,.18,.31-.26,.65-.51,.38-5.6-5.51-12.67-9.22-18.67-14.23-1.37-1.29-1.99-3.16-2.78-4.79-.18-.38,.43-.65,.58-.25h0Z"/>
    <path class="cls-11" d="M305.95,5.31c-8.22,5.26-3.14,13.98-3.34,21.61-.19,4.81-2.06,10.36-7.17,11.83-.3,.1-.62-.06-.72-.36-.06-.18-.02-.37,.08-.52,1.71-2.46,1.81-5.69,1.14-8.64-1.27-6.16-5.83-11.48-5.74-18.1,.05-3.34,1.46-6.6,3.83-8.84,.13-.12,.33-.12,.45,.01,.11,.12,.11,.3,.01,.42-8.66,10.66,4.4,20,3.03,31.15-.19,1.66-.81,3.29-1.79,4.66l-.63-.88c2.98-.82,5.08-3.32,5.85-6.25,.98-2.93,1.16-6.09,.64-9.18-.46-3.09-1.29-6.23-.95-9.47,.32-3.23,2.2-6.27,4.97-8,.34-.22,.7,.32,.33,.54h0Z"/>
    <path class="cls-11" d="M314.55,5.9c5.12,6.24,1.23,15.43-3.71,20.58-3.13,3.11-7.06,5.42-9.77,8.84-.1,.15-.31,.18-.46,.07-.12-.09-.15-.25-.1-.38,.61-1.43,1.59-2.65,2.64-3.74,3.09-3.15,7.08-5.37,9.58-9,3.28-4.38,5.41-11.4,1.35-15.94-.3-.29,.19-.76,.46-.43h0Z"/>
    <path class="cls-9" d="M294.89,40.7c-1.18-.69-1.28-.66-1.53-.87-.6-.49-1.3-.86-1.82-1.43-.52-.57-.9-1.32-.88-2.09,0-.15,.03-.3,.12-.42,.09-.11,.24-.16,.38-.18,.8-.11,1.43,.61,2.08,1.08,1.22,.87,2.98,.91,4.24,.1,.33-.21,.62-.47,.99-.61,.36-.14,.83-.11,1.07,.2,.16,.2,.18,.48,.14,.73-.16,.93-1.08,1.5-1.91,1.94-.96,.51-1.92,1.03-2.88,1.54"/>
  </g>
</svg>